<svg xmlns="http://www.w3.org/2000/svg" xmlns:xlink="http://www.w3.org/1999/xlink" width="512" height="512" viewBox="0 0 512 512">
  <defs>
    <clipPath id="canvas-clip">
      <rect width="512" height="512" rx="256" ry="256"/>
    </clipPath>
  </defs>
  <rect width="512" height="512" rx="256" ry="256" fill="#BA4D00"  clip-path="url(#canvas-clip)"/>
  <g clip-path="url(#canvas-clip)">
    <g transform="rotate(0, 256, 256)">
      
      <g transform="translate(77 77) scale(14.916666666666666 14.916666666666666) translate(0 0)"><g fill="none" stroke="#FFFFFF" stroke-linecap="round" stroke-linejoin="round" stroke-width="2"><path d="M20 9V6a2 2 0 0 0-2-2H6a2 2 0 0 0-2 2v3"/><path d="M2 16a2 2 0 0 0 2 2h16a2 2 0 0 0 2-2v-5a2 2 0 0 0-4 0v1.5a.5.5 0 0 1-.5.5h-11a.5.5 0 0 1-.5-.5V11a2 2 0 0 0-4 0zm2 2v2m16-2v2M12 4v9"/></g></g>
    </g>
  </g>
</svg>