<svg id="svg" version="1.1" xmlns="http://www.w3.org/2000/svg" xmlns:xlink="http://www.w3.org/1999/xlink" width="400" height="400" viewBox="0, 0, 400,400"><g id="svgg"><path id="path0" d="M121.062 94.331 C 120.449 95.008,120.400 103.078,120.400 202.322 L 120.400 309.582 121.357 310.209 C 122.217 310.772,127.694 310.823,175.057 310.707 L 227.800 310.577 234.400 309.273 C 270.735 302.096,290.087 278.723,287.674 244.931 C 286.333 226.146,275.595 210.354,258.802 202.468 C 255.205 200.779,247.308 198.400,245.299 198.400 C 244.164 198.400,241.600 197.365,241.600 196.907 C 241.600 196.361,243.592 195.368,247.000 194.213 C 268.346 186.983,280.294 169.757,279.469 147.400 C 278.330 116.514,255.159 96.229,218.448 93.980 C 205.846 93.208,121.804 93.511,121.062 94.331 M209.400 131.788 C 224.182 134.189,232.570 143.308,232.592 157.000 C 232.615 171.831,222.566 181.797,205.596 183.771 C 196.884 184.785,168.840 184.685,167.544 183.635 L 166.600 182.871 166.600 157.603 C 166.600 133.053,166.622 132.319,167.376 131.768 C 168.528 130.926,204.198 130.943,209.400 131.788 M212.400 216.598 C 229.531 218.730,240.340 230.585,239.919 246.777 C 239.576 259.928,232.821 267.818,218.800 271.445 L 214.600 272.531 191.387 272.694 L 168.175 272.856 167.387 271.986 C 166.621 271.139,166.600 270.413,166.600 244.323 L 166.600 217.529 167.544 216.765 C 168.796 215.751,204.532 215.618,212.400 216.598 " stroke="none" fill="#f8f8f8" fill-rule="evenodd"></path><path id="path1" d="M54.000 0.400 C 54.000 0.620,53.122 0.800,52.049 0.800 C 50.803 0.800,49.918 1.017,49.600 1.400 C 49.283 1.782,48.399 2.000,47.165 2.000 C 45.596 2.000,44.976 2.221,43.900 3.166 C 43.170 3.807,41.886 4.460,41.047 4.618 C 40.201 4.776,38.998 5.415,38.347 6.052 C 37.701 6.683,36.903 7.200,36.574 7.200 C 36.244 7.200,35.871 7.470,35.745 7.800 C 35.618 8.130,35.075 8.400,34.539 8.400 C 33.564 8.400,31.600 9.992,31.600 10.782 C 31.600 11.012,31.144 11.200,30.587 11.200 C 30.031 11.200,29.471 11.470,29.345 11.800 C 29.218 12.130,28.930 12.400,28.706 12.400 C 28.285 12.400,26.414 13.947,23.105 17.033 C 22.063 18.005,21.060 18.800,20.875 18.800 C 20.382 18.800,18.800 20.573,18.800 21.126 C 18.800 21.387,18.616 21.600,18.390 21.600 C 18.165 21.600,17.808 22.052,17.598 22.605 C 17.388 23.158,16.766 23.815,16.216 24.066 C 15.666 24.316,15.100 24.884,14.960 25.327 C 14.819 25.770,14.186 26.569,13.552 27.102 C 12.918 27.635,12.400 28.306,12.400 28.593 C 12.400 28.880,12.130 29.218,11.800 29.345 C 11.470 29.471,11.200 30.031,11.200 30.587 C 11.200 31.144,11.012 31.600,10.782 31.600 C 9.992 31.600,8.400 33.564,8.400 34.539 C 8.400 35.075,8.130 35.618,7.800 35.745 C 7.470 35.871,7.200 36.341,7.200 36.787 C 7.200 37.234,7.032 37.600,6.827 37.600 C 6.622 37.600,6.326 38.004,6.169 38.498 C 6.012 38.993,5.628 39.584,5.315 39.812 C 5.003 40.041,4.645 40.987,4.521 41.914 C 4.385 42.923,4.084 43.600,3.770 43.600 C 2.838 43.600,2.000 45.323,2.000 47.240 C 2.000 48.407,1.776 49.288,1.400 49.600 C 1.017 49.918,0.800 50.803,0.800 52.049 C 0.800 53.122,0.620 54.000,0.400 54.000 C 0.134 54.000,0.000 102.933,0.000 200.000 C 0.000 297.067,0.134 346.000,0.400 346.000 C 0.620 346.000,0.800 346.878,0.800 347.951 C 0.800 349.197,1.017 350.082,1.400 350.400 C 1.776 350.712,2.000 351.593,2.000 352.760 C 2.000 354.677,2.838 356.400,3.770 356.400 C 4.084 356.400,4.385 357.077,4.521 358.086 C 4.645 359.013,5.003 359.959,5.315 360.188 C 5.628 360.416,6.012 361.007,6.169 361.502 C 6.326 361.996,6.622 362.400,6.827 362.400 C 7.032 362.400,7.200 362.766,7.200 363.213 C 7.200 363.659,7.470 364.129,7.800 364.255 C 8.130 364.382,8.400 364.925,8.400 365.461 C 8.400 366.436,9.992 368.400,10.782 368.400 C 11.012 368.400,11.200 368.856,11.200 369.413 C 11.200 369.969,11.470 370.529,11.800 370.655 C 12.130 370.782,12.400 371.120,12.400 371.407 C 12.400 371.694,12.918 372.365,13.552 372.898 C 14.186 373.431,14.831 374.268,14.986 374.757 C 15.141 375.246,15.706 375.812,16.241 376.016 C 16.777 376.219,17.387 376.839,17.597 377.393 C 17.808 377.947,18.165 378.400,18.390 378.400 C 18.616 378.400,18.800 378.639,18.800 378.930 C 18.800 379.471,20.424 381.200,20.931 381.200 C 21.085 381.200,22.063 381.995,23.105 382.967 C 26.414 386.053,28.285 387.600,28.706 387.600 C 28.930 387.600,29.218 387.870,29.345 388.200 C 29.471 388.530,30.031 388.800,30.587 388.800 C 31.144 388.800,31.600 388.988,31.600 389.218 C 31.600 390.008,33.564 391.600,34.539 391.600 C 35.075 391.600,35.618 391.870,35.745 392.200 C 35.871 392.530,36.244 392.800,36.574 392.800 C 36.903 392.800,37.701 393.317,38.347 393.948 C 38.998 394.585,40.201 395.224,41.047 395.382 C 41.886 395.540,43.170 396.193,43.900 396.834 C 44.898 397.710,45.629 398.000,46.842 398.000 C 47.744 398.000,48.722 398.265,49.057 398.600 C 49.443 398.986,50.432 399.200,51.829 399.200 C 53.023 399.200,54.000 399.380,54.000 399.600 C 54.000 399.866,102.933 400.000,200.000 400.000 C 297.067 400.000,346.000 399.866,346.000 399.600 C 346.000 399.380,346.977 399.200,348.171 399.200 C 349.568 399.200,350.557 398.986,350.943 398.600 C 351.278 398.265,352.256 398.000,353.158 398.000 C 354.371 398.000,355.102 397.710,356.100 396.834 C 356.830 396.193,358.114 395.540,358.953 395.382 C 359.799 395.224,361.002 394.585,361.653 393.948 C 362.299 393.317,363.097 392.800,363.426 392.800 C 363.756 392.800,364.129 392.530,364.255 392.200 C 364.382 391.870,364.925 391.600,365.461 391.600 C 366.436 391.600,368.400 390.008,368.400 389.218 C 368.400 388.988,368.856 388.800,369.413 388.800 C 369.969 388.800,370.529 388.530,370.655 388.200 C 370.782 387.870,371.070 387.600,371.294 387.600 C 371.715 387.600,373.586 386.053,376.895 382.967 C 377.937 381.995,378.940 381.200,379.125 381.200 C 379.618 381.200,381.200 379.427,381.200 378.874 C 381.200 378.613,381.384 378.400,381.610 378.400 C 381.835 378.400,382.192 377.947,382.403 377.393 C 382.613 376.839,383.223 376.219,383.759 376.016 C 384.294 375.812,384.859 375.246,385.014 374.757 C 385.169 374.268,385.814 373.431,386.448 372.898 C 387.082 372.365,387.600 371.694,387.600 371.407 C 387.600 371.120,387.870 370.782,388.200 370.655 C 388.530 370.529,388.800 369.969,388.800 369.413 C 388.800 368.856,388.988 368.400,389.218 368.400 C 390.008 368.400,391.600 366.436,391.600 365.461 C 391.600 364.925,391.870 364.382,392.200 364.255 C 392.530 364.129,392.800 363.659,392.800 363.213 C 392.800 362.766,392.977 362.400,393.192 362.400 C 393.408 362.400,393.694 361.963,393.828 361.429 C 393.963 360.895,394.316 360.364,394.614 360.250 C 394.912 360.136,395.284 359.358,395.441 358.523 C 395.607 357.635,396.199 356.562,396.863 355.941 C 397.818 355.049,398.000 354.560,398.000 352.888 C 398.000 351.607,398.214 350.721,398.600 350.400 C 398.983 350.082,399.200 349.197,399.200 347.951 C 399.200 346.878,399.380 346.000,399.600 346.000 C 399.866 346.000,400.000 297.067,400.000 200.000 C 400.000 102.933,399.866 54.000,399.600 54.000 C 399.380 54.000,399.200 53.122,399.200 52.049 C 399.200 50.803,398.983 49.918,398.600 49.600 C 398.224 49.288,398.000 48.407,398.000 47.240 C 398.000 45.323,397.162 43.600,396.230 43.600 C 395.916 43.600,395.615 42.923,395.479 41.914 C 395.355 40.987,394.997 40.041,394.685 39.812 C 394.372 39.584,393.988 38.993,393.831 38.498 C 393.674 38.004,393.378 37.600,393.173 37.600 C 392.968 37.600,392.800 37.234,392.800 36.787 C 392.800 36.341,392.530 35.871,392.200 35.745 C 391.870 35.618,391.600 35.075,391.600 34.539 C 391.600 33.564,390.008 31.600,389.218 31.600 C 388.988 31.600,388.800 31.144,388.800 30.587 C 388.800 30.031,388.530 29.471,388.200 29.345 C 387.870 29.218,387.600 28.880,387.600 28.593 C 387.600 28.306,387.082 27.635,386.448 27.102 C 385.814 26.569,385.169 25.732,385.014 25.243 C 384.859 24.754,384.294 24.188,383.759 23.984 C 383.223 23.781,382.613 23.161,382.403 22.607 C 382.192 22.053,381.835 21.600,381.610 21.600 C 381.384 21.600,381.200 21.361,381.200 21.070 C 381.200 20.529,379.576 18.800,379.069 18.800 C 378.915 18.800,377.937 18.005,376.895 17.033 C 373.586 13.947,371.715 12.400,371.294 12.400 C 371.070 12.400,370.782 12.130,370.655 11.800 C 370.529 11.470,369.969 11.200,369.413 11.200 C 368.856 11.200,368.400 11.012,368.400 10.782 C 368.400 9.992,366.436 8.400,365.461 8.400 C 364.925 8.400,364.382 8.130,364.255 7.800 C 364.129 7.470,363.756 7.200,363.426 7.200 C 363.097 7.200,362.299 6.683,361.653 6.052 C 361.002 5.415,359.799 4.776,358.953 4.618 C 358.114 4.460,356.830 3.807,356.100 3.166 C 355.024 2.221,354.404 2.000,352.835 2.000 C 351.601 2.000,350.717 1.782,350.400 1.400 C 350.082 1.017,349.197 0.800,347.951 0.800 C 346.878 0.800,346.000 0.620,346.000 0.400 C 346.000 0.134,297.067 0.000,200.000 0.000 C 102.933 0.000,54.000 0.134,54.000 0.400 M218.448 93.980 C 255.159 96.229,278.330 116.514,279.469 147.400 C 280.294 169.757,268.346 186.983,247.000 194.213 C 243.592 195.368,241.600 196.361,241.600 196.907 C 241.600 197.365,244.164 198.400,245.299 198.400 C 247.308 198.400,255.205 200.779,258.802 202.468 C 275.595 210.354,286.333 226.146,287.674 244.931 C 290.087 278.723,270.735 302.096,234.400 309.273 L 227.800 310.577 175.057 310.707 C 127.694 310.823,122.217 310.772,121.357 310.209 L 120.400 309.582 120.400 202.322 C 120.400 103.078,120.449 95.008,121.062 94.331 C 121.804 93.511,205.846 93.208,218.448 93.980 M167.376 131.768 C 166.622 132.319,166.600 133.053,166.600 157.603 L 166.600 182.871 167.544 183.635 C 168.840 184.685,196.884 184.785,205.596 183.771 C 222.566 181.797,232.615 171.831,232.592 157.000 C 232.570 143.308,224.182 134.189,209.400 131.788 C 204.198 130.943,168.528 130.926,167.376 131.768 M167.544 216.765 L 166.600 217.529 166.600 244.323 C 166.600 270.413,166.621 271.139,167.387 271.986 L 168.175 272.856 191.387 272.694 L 214.600 272.531 218.800 271.445 C 232.821 267.818,239.576 259.928,239.919 246.777 C 240.340 230.585,229.531 218.730,212.400 216.598 C 204.532 215.618,168.796 215.751,167.544 216.765 " stroke="none" fill="#040404" fill-rule="evenodd"></path></g></svg>