<svg version="1.2" xmlns="http://www.w3.org/2000/svg" viewBox="0 0 32 32" width="32" height="32">
	<style>
		.s0 { fill: #191919 } 
		.s1 { fill: #e0e0e0 } 
	</style>
	<path id="Layer 1" fill-rule="evenodd" class="s0" d="m5 0h22c2.76 0 5 2.24 5 5v22c0 2.76-2.24 5-5 5h-22c-2.76 0-5-2.24-5-5v-22c0-2.76 2.24-5 5-5z"/>
	<path id="{ ; }" class="s1" aria-label="{ ; }"  d="m10.9 23.8v-2c-1.5 0-1.8-0.6-1.8-1.8v-1.9c0-1-0.4-1.8-2.2-2.2v-0.3c1.8-0.4 2.2-1.2 2.2-2.2v-1.9c0-1.2 0.3-1.8 1.8-1.8v-2c-2.5 0-4.4 0.4-4.4 3.5v1.5c0 1.3-0.5 1.8-1.9 1.8v2.5c1.4 0 1.9 0.5 1.9 1.8v1.5c0 3.1 1.9 3.5 4.4 3.5zm6.1-4.6h-2.2v0.7c-0.1 1.8-0.6 3.5-0.8 4.3h1.8c0.3-0.8 1-2.6 1.2-4.3zm-1.2-4.9c0.9 0 1.6-0.7 1.6-1.5 0-0.9-0.7-1.6-1.6-1.6-0.8 0-1.5 0.7-1.5 1.6 0 0.8 0.7 1.5 1.5 1.5zm5.5-6.6v2c1.6 0 1.9 0.6 1.9 1.8v1.9c0 1 0.4 1.9 2.2 2.2v0.3c-1.8 0.4-2.2 1.2-2.2 2.2v1.9c0 1.2-0.3 1.8-1.9 1.8v2c2.6 0 4.5-0.4 4.5-3.5v-1.5c0-1.3 0.5-1.8 1.9-1.8v-2.5c-1.4 0-1.9-0.5-1.9-1.8v-1.5c0-3.1-1.9-3.5-4.5-3.5z"/>
</svg>